<svg aria-roledescription="er" role="graphics-document document" viewBox="0 0 1028.00390625 752" style="max-width: 100%;" xmlns="http://www.w3.org/2000/svg" width="100%" id="graph-div" height="100%" xmlns:xlink="http://www.w3.org/1999/xlink"><style>@import url("https://cdnjs.cloudflare.com/ajax/libs/font-awesome/6.4.0/css/all.min.css");'</style><style>#graph-div{font-family:"trebuchet ms",verdana,arial,sans-serif;font-size:16px;fill:#333;}#graph-div .error-icon{fill:#552222;}#graph-div .error-text{fill:#552222;stroke:#552222;}#graph-div .edge-thickness-normal{stroke-width:2px;}#graph-div .edge-thickness-thick{stroke-width:3.5px;}#graph-div .edge-pattern-solid{stroke-dasharray:0;}#graph-div .edge-pattern-dashed{stroke-dasharray:3;}#graph-div .edge-pattern-dotted{stroke-dasharray:2;}#graph-div .marker{fill:#333333;stroke:#333333;}#graph-div .marker.cross{stroke:#333333;}#graph-div svg{font-family:"trebuchet ms",verdana,arial,sans-serif;font-size:16px;}#graph-div .entityBox{fill:#ECECFF;stroke:#9370DB;}#graph-div .attributeBoxOdd{fill:#ffffff;stroke:#9370DB;}#graph-div .attributeBoxEven{fill:#f2f2f2;stroke:#9370DB;}#graph-div .relationshipLabelBox{fill:hsl(80, 100%, 96.2745098039%);opacity:0.7;background-color:hsl(80, 100%, 96.2745098039%);}#graph-div .relationshipLabelBox rect{opacity:0.5;}#graph-div .relationshipLine{stroke:#333333;}#graph-div .entityTitleText{text-anchor:middle;font-size:18px;fill:#333;}#graph-div #MD_PARENT_START{fill:#f5f5f5!important;stroke:#333333!important;stroke-width:1;}#graph-div #MD_PARENT_END{fill:#f5f5f5!important;stroke:#333333!important;stroke-width:1;}#graph-div :root{--mermaid-font-family:"trebuchet ms",verdana,arial,sans-serif;}</style><g></g><defs><marker orient="auto" markerHeight="240" markerWidth="190" refY="7" refX="0" id="MD_PARENT_START"><path d="M 18,7 L9,13 L1,7 L9,1 Z"></path></marker></defs><defs><marker orient="auto" markerHeight="28" markerWidth="20" refY="7" refX="19" id="MD_PARENT_END"><path d="M 18,7 L9,13 L1,7 L9,1 Z"></path></marker></defs><defs><marker orient="auto" markerHeight="18" markerWidth="18" refY="9" refX="0" id="ONLY_ONE_START"><path d="M9,0 L9,18 M15,0 L15,18" fill="none" stroke="gray"></path></marker></defs><defs><marker orient="auto" markerHeight="18" markerWidth="18" refY="9" refX="18" id="ONLY_ONE_END"><path d="M3,0 L3,18 M9,0 L9,18" fill="none" stroke="gray"></path></marker></defs><defs><marker orient="auto" markerHeight="18" markerWidth="30" refY="9" refX="0" id="ZERO_OR_ONE_START"><circle r="6" cy="9" cx="21" fill="white" stroke="gray"></circle><path d="M9,0 L9,18" fill="none" stroke="gray"></path></marker></defs><defs><marker orient="auto" markerHeight="18" markerWidth="30" refY="9" refX="30" id="ZERO_OR_ONE_END"><circle r="6" cy="9" cx="9" fill="white" stroke="gray"></circle><path d="M21,0 L21,18" fill="none" stroke="gray"></path></marker></defs><defs><marker orient="auto" markerHeight="36" markerWidth="45" refY="18" refX="18" id="ONE_OR_MORE_START"><path d="M0,18 Q 18,0 36,18 Q 18,36 0,18 M42,9 L42,27" fill="none" stroke="gray"></path></marker></defs><defs><marker orient="auto" markerHeight="36" markerWidth="45" refY="18" refX="27" id="ONE_OR_MORE_END"><path d="M3,9 L3,27 M9,18 Q27,0 45,18 Q27,36 9,18" fill="none" stroke="gray"></path></marker></defs><defs><marker orient="auto" markerHeight="36" markerWidth="57" refY="18" refX="18" id="ZERO_OR_MORE_START"><circle r="6" cy="18" cx="48" fill="white" stroke="gray"></circle><path d="M0,18 Q18,0 36,18 Q18,36 0,18" fill="none" stroke="gray"></path></marker></defs><defs><marker orient="auto" markerHeight="36" markerWidth="57" refY="18" refX="39" id="ZERO_OR_MORE_END"><circle r="6" cy="18" cx="9" fill="white" stroke="gray"></circle><path d="M21,18 Q39,0 57,18 Q39,36 21,18" fill="none" stroke="gray"></path></marker></defs><path style="stroke: gray; fill: none;" marker-start="url(#ONLY_ONE_START)" marker-end="url(#ONLY_ONE_END)" d="M76.796875,165L76.796875,175.16666666666666C76.796875,185.33333333333334,76.796875,205.66666666666666,101.45572916666667,237.28146834753656C126.11458333333333,268.89627002840643,175.43229166666666,311.7925400568129,200.09114583333334,333.24067507101614L224.75,354.68881008521936" class="er relationshipLine"></path><path style="stroke: gray; fill: none;" marker-start="url(#ONLY_ONE_START)" marker-end="url(#ZERO_OR_MORE_END)" d="M287.19140625,176L287.19140625,184.33333333333334C287.19140625,192.66666666666666,287.19140625,209.33333333333334,287.19140625,235.16666666666666C287.19140625,261,287.19140625,296,287.19140625,313.5L287.19140625,331" class="er relationshipLine"></path><path style="stroke: gray; fill: none;" marker-start="url(#ONLY_ONE_START)" marker-end="url(#ZERO_OR_MORE_END)" d="M490.7890625,121L490.7890625,138.5C490.7890625,156,490.7890625,191,467.2630208333333,229.64594884979184C443.7369791666667,268.29189769958367,396.6848958333333,310.5837953991673,373.1588541666667,331.72974424895915L349.6328125,352.87569309875096" class="er relationshipLine"></path><path style="stroke: gray; fill: none;" marker-start="url(#ZERO_OR_ONE_START)" marker-end="url(#ZERO_OR_ONE_END)" d="M706.125,443L706.125,467.8333333333333C706.125,492.6666666666667,706.125,542.3333333333334,706.125,577.3333333333334C706.125,612.3333333333334,706.125,632.6666666666666,706.125,642.8333333333334L706.125,653" class="er relationshipLine"></path><path style="stroke: gray; fill: none;" marker-start="url(#ZERO_OR_ONE_START)" marker-end="url(#ZERO_OR_ONE_END)" d="M706.125,132L706.125,147.66666666666666C706.125,163.33333333333334,706.125,194.66666666666666,706.125,235.16666666666666C706.125,275.6666666666667,706.125,325.3333333333333,706.125,350.1666666666667L706.125,375" class="er relationshipLine"></path><path style="stroke: gray; fill: none;" marker-start="url(#ZERO_OR_ONE_START)" marker-end="url(#ZERO_OR_ONE_END)" d="M941.20703125,542L941.20703125,550.3333333333334C941.20703125,558.6666666666666,941.20703125,575.3333333333334,941.20703125,592C941.20703125,608.6666666666666,941.20703125,625.3333333333334,941.20703125,633.6666666666666L941.20703125,642" class="er relationshipLine"></path><path style="stroke: gray; fill: none;" marker-start="url(#ZERO_OR_ONE_START)" marker-end="url(#ZERO_OR_ONE_END)" d="M941.20703125,132L941.20703125,147.66666666666666C941.20703125,163.33333333333334,941.20703125,194.66666666666666,941.20703125,218.66666666666666C941.20703125,242.66666666666666,941.20703125,259.3333333333333,941.20703125,267.6666666666667L941.20703125,276" class="er relationshipLine"></path><g transform="translate(224.75,331 )" id="entity-SALES-22a1816e-4290-51f7-89d4-458a203c033c"><rect height="156" width="124.8828125" y="0" x="0" class="er entityBox"></rect><text transform="translate(62.44140625,12)" style="dominant-baseline: middle; text-anchor: middle; font-size: 12px;" y="0" x="0" id="text-entity-SALES-22a1816e-4290-51f7-89d4-458a203c033c" class="er entityLabel">SALES</text><rect height="22" width="58.671875" y="24" x="0" class="er attributeBoxOdd"></rect><text transform="translate(5,35)" style="dominant-baseline: middle; font-size: 10.2px;" y="0" x="0" id="text-entity-SALES-22a1816e-4290-51f7-89d4-458a203c033c-attr-1-type" class="er entityLabel">int</text><rect height="22" width="66.2109375" y="24" x="58.671875" class="er attributeBoxOdd"></rect><text transform="translate(63.671875,35)" style="dominant-baseline: middle; font-size: 10.2px;" y="0" x="0" id="text-entity-SALES-22a1816e-4290-51f7-89d4-458a203c033c-attr-1-name" class="er entityLabel">order_id</text><rect height="22" width="58.671875" y="46" x="0" class="er attributeBoxEven"></rect><text transform="translate(5,57)" style="dominant-baseline: middle; font-size: 10.2px;" y="0" x="0" id="text-entity-SALES-22a1816e-4290-51f7-89d4-458a203c033c-attr-2-type" class="er entityLabel">int</text><rect height="22" width="66.2109375" y="46" x="58.671875" class="er attributeBoxEven"></rect><text transform="translate(63.671875,57)" style="dominant-baseline: middle; font-size: 10.2px;" y="0" x="0" id="text-entity-SALES-22a1816e-4290-51f7-89d4-458a203c033c-attr-2-name" class="er entityLabel">customer_id</text><rect height="22" width="58.671875" y="68" x="0" class="er attributeBoxOdd"></rect><text transform="translate(5,79)" style="dominant-baseline: middle; font-size: 10.2px;" y="0" x="0" id="text-entity-SALES-22a1816e-4290-51f7-89d4-458a203c033c-attr-3-type" class="er entityLabel">int</text><rect height="22" width="66.2109375" y="68" x="58.671875" class="er attributeBoxOdd"></rect><text transform="translate(63.671875,79)" style="dominant-baseline: middle; font-size: 10.2px;" y="0" x="0" id="text-entity-SALES-22a1816e-4290-51f7-89d4-458a203c033c-attr-3-name" class="er entityLabel">product_id</text><rect height="22" width="58.671875" y="90" x="0" class="er attributeBoxEven"></rect><text transform="translate(5,101)" style="dominant-baseline: middle; font-size: 10.2px;" y="0" x="0" id="text-entity-SALES-22a1816e-4290-51f7-89d4-458a203c033c-attr-4-type" class="er entityLabel">int</text><rect height="22" width="66.2109375" y="90" x="58.671875" class="er attributeBoxEven"></rect><text transform="translate(63.671875,101)" style="dominant-baseline: middle; font-size: 10.2px;" y="0" x="0" id="text-entity-SALES-22a1816e-4290-51f7-89d4-458a203c033c-attr-4-name" class="er entityLabel">quantity</text><rect height="22" width="58.671875" y="112" x="0" class="er attributeBoxOdd"></rect><text transform="translate(5,123)" style="dominant-baseline: middle; font-size: 10.2px;" y="0" x="0" id="text-entity-SALES-22a1816e-4290-51f7-89d4-458a203c033c-attr-5-type" class="er entityLabel">float</text><rect height="22" width="66.2109375" y="112" x="58.671875" class="er attributeBoxOdd"></rect><text transform="translate(63.671875,123)" style="dominant-baseline: middle; font-size: 10.2px;" y="0" x="0" id="text-entity-SALES-22a1816e-4290-51f7-89d4-458a203c033c-attr-5-name" class="er entityLabel">price</text><rect height="22" width="58.671875" y="134" x="0" class="er attributeBoxEven"></rect><text transform="translate(5,145)" style="dominant-baseline: middle; font-size: 10.2px;" y="0" x="0" id="text-entity-SALES-22a1816e-4290-51f7-89d4-458a203c033c-attr-6-type" class="er entityLabel">timestamp</text><rect height="22" width="66.2109375" y="134" x="58.671875" class="er attributeBoxEven"></rect><text transform="translate(63.671875,145)" style="dominant-baseline: middle; font-size: 10.2px;" y="0" x="0" id="text-entity-SALES-22a1816e-4290-51f7-89d4-458a203c033c-attr-6-name" class="er entityLabel">order_date</text></g><g transform="translate(20,31 )" id="entity-WEATHER-bfc3f1dc-2f25-5105-85ae-717dcb7a361b"><rect height="134" width="113.59375" y="0" x="0" class="er entityBox"></rect><text transform="translate(56.796875,12)" style="dominant-baseline: middle; text-anchor: middle; font-size: 12px;" y="0" x="0" id="text-entity-WEATHER-bfc3f1dc-2f25-5105-85ae-717dcb7a361b" class="er entityLabel">WEATHER</text><rect height="22" width="35.7421875" y="24" x="0" class="er attributeBoxOdd"></rect><text transform="translate(5,35)" style="dominant-baseline: middle; font-size: 10.2px;" y="0" x="0" id="text-entity-WEATHER-bfc3f1dc-2f25-5105-85ae-717dcb7a361b-attr-1-type" class="er entityLabel">int</text><rect height="22" width="77.8515625" y="24" x="35.7421875" class="er attributeBoxOdd"></rect><text transform="translate(40.7421875,35)" style="dominant-baseline: middle; font-size: 10.2px;" y="0" x="0" id="text-entity-WEATHER-bfc3f1dc-2f25-5105-85ae-717dcb7a361b-attr-1-name" class="er entityLabel">order_id</text><rect height="22" width="35.7421875" y="46" x="0" class="er attributeBoxEven"></rect><text transform="translate(5,57)" style="dominant-baseline: middle; font-size: 10.2px;" y="0" x="0" id="text-entity-WEATHER-bfc3f1dc-2f25-5105-85ae-717dcb7a361b-attr-2-type" class="er entityLabel">string</text><rect height="22" width="77.8515625" y="46" x="35.7421875" class="er attributeBoxEven"></rect><text transform="translate(40.7421875,57)" style="dominant-baseline: middle; font-size: 10.2px;" y="0" x="0" id="text-entity-WEATHER-bfc3f1dc-2f25-5105-85ae-717dcb7a361b-attr-2-name" class="er entityLabel">weather_main</text><rect height="22" width="35.7421875" y="68" x="0" class="er attributeBoxOdd"></rect><text transform="translate(5,79)" style="dominant-baseline: middle; font-size: 10.2px;" y="0" x="0" id="text-entity-WEATHER-bfc3f1dc-2f25-5105-85ae-717dcb7a361b-attr-3-type" class="er entityLabel">float</text><rect height="22" width="77.8515625" y="68" x="35.7421875" class="er attributeBoxOdd"></rect><text transform="translate(40.7421875,79)" style="dominant-baseline: middle; font-size: 10.2px;" y="0" x="0" id="text-entity-WEATHER-bfc3f1dc-2f25-5105-85ae-717dcb7a361b-attr-3-name" class="er entityLabel">main_temp</text><rect height="22" width="35.7421875" y="90" x="0" class="er attributeBoxEven"></rect><text transform="translate(5,101)" style="dominant-baseline: middle; font-size: 10.2px;" y="0" x="0" id="text-entity-WEATHER-bfc3f1dc-2f25-5105-85ae-717dcb7a361b-attr-4-type" class="er entityLabel">float</text><rect height="22" width="77.8515625" y="90" x="35.7421875" class="er attributeBoxEven"></rect><text transform="translate(40.7421875,101)" style="dominant-baseline: middle; font-size: 10.2px;" y="0" x="0" id="text-entity-WEATHER-bfc3f1dc-2f25-5105-85ae-717dcb7a361b-attr-4-name" class="er entityLabel">main_humidity</text><rect height="22" width="35.7421875" y="112" x="0" class="er attributeBoxOdd"></rect><text transform="translate(5,123)" style="dominant-baseline: middle; font-size: 10.2px;" y="0" x="0" id="text-entity-WEATHER-bfc3f1dc-2f25-5105-85ae-717dcb7a361b-attr-5-type" class="er entityLabel">float</text><rect height="22" width="77.8515625" y="112" x="35.7421875" class="er attributeBoxOdd"></rect><text transform="translate(40.7421875,123)" style="dominant-baseline: middle; font-size: 10.2px;" y="0" x="0" id="text-entity-WEATHER-bfc3f1dc-2f25-5105-85ae-717dcb7a361b-attr-5-name" class="er entityLabel">wind_speed</text></g><g transform="translate(233.59375,20 )" id="entity-CUSTOMERS-f16d4b86-fdce-5504-97dd-e4b4cdf26b8c"><rect height="156" width="107.1953125" y="0" x="0" class="er entityBox"></rect><text transform="translate(53.59765625,12)" style="dominant-baseline: middle; text-anchor: middle; font-size: 12px;" y="0" x="0" id="text-entity-CUSTOMERS-f16d4b86-fdce-5504-97dd-e4b4cdf26b8c" class="er entityLabel">CUSTOMERS</text><rect height="22" width="40.984375" y="24" x="0" class="er attributeBoxOdd"></rect><text transform="translate(5,35)" style="dominant-baseline: middle; font-size: 10.2px;" y="0" x="0" id="text-entity-CUSTOMERS-f16d4b86-fdce-5504-97dd-e4b4cdf26b8c-attr-1-type" class="er entityLabel">int</text><rect height="22" width="66.2109375" y="24" x="40.984375" class="er attributeBoxOdd"></rect><text transform="translate(45.984375,35)" style="dominant-baseline: middle; font-size: 10.2px;" y="0" x="0" id="text-entity-CUSTOMERS-f16d4b86-fdce-5504-97dd-e4b4cdf26b8c-attr-1-name" class="er entityLabel">customer_id</text><rect height="22" width="40.984375" y="46" x="0" class="er attributeBoxEven"></rect><text transform="translate(5,57)" style="dominant-baseline: middle; font-size: 10.2px;" y="0" x="0" id="text-entity-CUSTOMERS-f16d4b86-fdce-5504-97dd-e4b4cdf26b8c-attr-2-type" class="er entityLabel">string</text><rect height="22" width="66.2109375" y="46" x="40.984375" class="er attributeBoxEven"></rect><text transform="translate(45.984375,57)" style="dominant-baseline: middle; font-size: 10.2px;" y="0" x="0" id="text-entity-CUSTOMERS-f16d4b86-fdce-5504-97dd-e4b4cdf26b8c-attr-2-name" class="er entityLabel">name</text><rect height="22" width="40.984375" y="68" x="0" class="er attributeBoxOdd"></rect><text transform="translate(5,79)" style="dominant-baseline: middle; font-size: 10.2px;" y="0" x="0" id="text-entity-CUSTOMERS-f16d4b86-fdce-5504-97dd-e4b4cdf26b8c-attr-3-type" class="er entityLabel">string</text><rect height="22" width="66.2109375" y="68" x="40.984375" class="er attributeBoxOdd"></rect><text transform="translate(45.984375,79)" style="dominant-baseline: middle; font-size: 10.2px;" y="0" x="0" id="text-entity-CUSTOMERS-f16d4b86-fdce-5504-97dd-e4b4cdf26b8c-attr-3-name" class="er entityLabel">username</text><rect height="22" width="40.984375" y="90" x="0" class="er attributeBoxEven"></rect><text transform="translate(5,101)" style="dominant-baseline: middle; font-size: 10.2px;" y="0" x="0" id="text-entity-CUSTOMERS-f16d4b86-fdce-5504-97dd-e4b4cdf26b8c-attr-4-type" class="er entityLabel">string</text><rect height="22" width="66.2109375" y="90" x="40.984375" class="er attributeBoxEven"></rect><text transform="translate(45.984375,101)" style="dominant-baseline: middle; font-size: 10.2px;" y="0" x="0" id="text-entity-CUSTOMERS-f16d4b86-fdce-5504-97dd-e4b4cdf26b8c-attr-4-name" class="er entityLabel">email</text><rect height="22" width="40.984375" y="112" x="0" class="er attributeBoxOdd"></rect><text transform="translate(5,123)" style="dominant-baseline: middle; font-size: 10.2px;" y="0" x="0" id="text-entity-CUSTOMERS-f16d4b86-fdce-5504-97dd-e4b4cdf26b8c-attr-5-type" class="er entityLabel">double</text><rect height="22" width="66.2109375" y="112" x="40.984375" class="er attributeBoxOdd"></rect><text transform="translate(45.984375,123)" style="dominant-baseline: middle; font-size: 10.2px;" y="0" x="0" id="text-entity-CUSTOMERS-f16d4b86-fdce-5504-97dd-e4b4cdf26b8c-attr-5-name" class="er entityLabel">lat</text><rect height="22" width="40.984375" y="134" x="0" class="er attributeBoxEven"></rect><text transform="translate(5,145)" style="dominant-baseline: middle; font-size: 10.2px;" y="0" x="0" id="text-entity-CUSTOMERS-f16d4b86-fdce-5504-97dd-e4b4cdf26b8c-attr-6-type" class="er entityLabel">double</text><rect height="22" width="66.2109375" y="134" x="40.984375" class="er attributeBoxEven"></rect><text transform="translate(45.984375,145)" style="dominant-baseline: middle; font-size: 10.2px;" y="0" x="0" id="text-entity-CUSTOMERS-f16d4b86-fdce-5504-97dd-e4b4cdf26b8c-attr-6-name" class="er entityLabel">lon</text></g><g transform="translate(440.7890625,75 )" id="entity-PRODUCTS-362c442a-463b-592a-aa0d-86bc5b21c2f4"><rect height="46" width="100" y="0" x="0" class="er entityBox"></rect><text transform="translate(50,12)" style="dominant-baseline: middle; text-anchor: middle; font-size: 12px;" y="0" x="0" id="text-entity-PRODUCTS-362c442a-463b-592a-aa0d-86bc5b21c2f4" class="er entityLabel">PRODUCTS</text><rect height="22" width="31.55859375" y="24" x="0" class="er attributeBoxOdd"></rect><text transform="translate(5,35)" style="dominant-baseline: middle; font-size: 10.2px;" y="0" x="0" id="text-entity-PRODUCTS-362c442a-463b-592a-aa0d-86bc5b21c2f4-attr-1-type" class="er entityLabel">int</text><rect height="22" width="68.44140625" y="24" x="31.55859375" class="er attributeBoxOdd"></rect><text transform="translate(36.55859375,35)" style="dominant-baseline: middle; font-size: 10.2px;" y="0" x="0" id="text-entity-PRODUCTS-362c442a-463b-592a-aa0d-86bc5b21c2f4-attr-1-name" class="er entityLabel">product_id</text></g><g transform="translate(656.125,653 )" id="entity-AVGQUANT-9accfeb6-ec8d-5441-a635-1c70d765b686"><rect height="68" width="100" y="0" x="0" class="er entityBox"></rect><text transform="translate(50,12)" style="dominant-baseline: middle; text-anchor: middle; font-size: 12px;" y="0" x="0" id="text-entity-AVGQUANT-9accfeb6-ec8d-5441-a635-1c70d765b686" class="er entityLabel">AVG_QUANT</text><rect height="22" width="36.12109375" y="24" x="0" class="er attributeBoxOdd"></rect><text transform="translate(5,35)" style="dominant-baseline: middle; font-size: 10.2px;" y="0" x="0" id="text-entity-AVGQUANT-9accfeb6-ec8d-5441-a635-1c70d765b686-attr-1-type" class="er entityLabel">int</text><rect height="22" width="63.87890625" y="24" x="36.12109375" class="er attributeBoxOdd"></rect><text transform="translate(41.12109375,35)" style="dominant-baseline: middle; font-size: 10.2px;" y="0" x="0" id="text-entity-AVGQUANT-9accfeb6-ec8d-5441-a635-1c70d765b686-attr-1-name" class="er entityLabel">product_id</text><rect height="22" width="36.12109375" y="46" x="0" class="er attributeBoxEven"></rect><text transform="translate(5,57)" style="dominant-baseline: middle; font-size: 10.2px;" y="0" x="0" id="text-entity-AVGQUANT-9accfeb6-ec8d-5441-a635-1c70d765b686-attr-2-type" class="er entityLabel">float</text><rect height="22" width="63.87890625" y="46" x="36.12109375" class="er attributeBoxEven"></rect><text transform="translate(41.12109375,57)" style="dominant-baseline: middle; font-size: 10.2px;" y="0" x="0" id="text-entity-AVGQUANT-9accfeb6-ec8d-5441-a635-1c70d765b686-attr-2-name" class="er entityLabel">quantity</text></g><g transform="translate(636.1640625,375 )" id="entity-AVGSALEWEATHER-ff1593fd-fbd8-5b0d-9857-d7f1ce29d513"><rect height="68" width="139.921875" y="0" x="0" class="er entityBox"></rect><text transform="translate(69.9609375,12)" style="dominant-baseline: middle; text-anchor: middle; font-size: 12px;" y="0" x="0" id="text-entity-AVGSALEWEATHER-ff1593fd-fbd8-5b0d-9857-d7f1ce29d513" class="er entityLabel">AVG_SALE_WEATHER</text><rect height="22" width="50.171875" y="24" x="0" class="er attributeBoxOdd"></rect><text transform="translate(5,35)" style="dominant-baseline: middle; font-size: 10.2px;" y="0" x="0" id="text-entity-AVGSALEWEATHER-ff1593fd-fbd8-5b0d-9857-d7f1ce29d513-attr-1-type" class="er entityLabel">string</text><rect height="22" width="89.75" y="24" x="50.171875" class="er attributeBoxOdd"></rect><text transform="translate(55.171875,35)" style="dominant-baseline: middle; font-size: 10.2px;" y="0" x="0" id="text-entity-AVGSALEWEATHER-ff1593fd-fbd8-5b0d-9857-d7f1ce29d513-attr-1-name" class="er entityLabel">weather_main</text><rect height="22" width="50.171875" y="46" x="0" class="er attributeBoxEven"></rect><text transform="translate(5,57)" style="dominant-baseline: middle; font-size: 10.2px;" y="0" x="0" id="text-entity-AVGSALEWEATHER-ff1593fd-fbd8-5b0d-9857-d7f1ce29d513-attr-2-type" class="er entityLabel">float</text><rect height="22" width="89.75" y="46" x="50.171875" class="er attributeBoxEven"></rect><text transform="translate(55.171875,57)" style="dominant-baseline: middle; font-size: 10.2px;" y="0" x="0" id="text-entity-AVGSALEWEATHER-ff1593fd-fbd8-5b0d-9857-d7f1ce29d513-attr-2-name" class="er entityLabel">sale_value</text></g><g transform="translate(640.7890625,64 )" id="entity-MONTHLYVOLUME-f623d923-f62d-5162-8a6c-819b59acafa4"><rect height="68" width="130.671875" y="0" x="0" class="er entityBox"></rect><text transform="translate(65.3359375,12)" style="dominant-baseline: middle; text-anchor: middle; font-size: 12px;" y="0" x="0" id="text-entity-MONTHLYVOLUME-f623d923-f62d-5162-8a6c-819b59acafa4" class="er entityLabel">MONTHLY_VOLUME</text><rect height="22" width="52.8828125" y="24" x="0" class="er attributeBoxOdd"></rect><text transform="translate(5,35)" style="dominant-baseline: middle; font-size: 10.2px;" y="0" x="0" id="text-entity-MONTHLYVOLUME-f623d923-f62d-5162-8a6c-819b59acafa4-attr-1-type" class="er entityLabel">string</text><rect height="22" width="77.7890625" y="24" x="52.8828125" class="er attributeBoxOdd"></rect><text transform="translate(57.8828125,35)" style="dominant-baseline: middle; font-size: 10.2px;" y="0" x="0" id="text-entity-MONTHLYVOLUME-f623d923-f62d-5162-8a6c-819b59acafa4-attr-1-name" class="er entityLabel">order_date</text><rect height="22" width="52.8828125" y="46" x="0" class="er attributeBoxEven"></rect><text transform="translate(5,57)" style="dominant-baseline: middle; font-size: 10.2px;" y="0" x="0" id="text-entity-MONTHLYVOLUME-f623d923-f62d-5162-8a6c-819b59acafa4-attr-2-type" class="er entityLabel">float</text><rect height="22" width="77.7890625" y="46" x="52.8828125" class="er attributeBoxEven"></rect><text transform="translate(57.8828125,57)" style="dominant-baseline: middle; font-size: 10.2px;" y="0" x="0" id="text-entity-MONTHLYVOLUME-f623d923-f62d-5162-8a6c-819b59acafa4-attr-2-name" class="er entityLabel">sale_value</text></g><g transform="translate(874.41015625,642 )" id="entity-SALESBYCUS-8b9894ec-ced2-572b-b26e-75b1eae6b2aa"><rect height="90" width="133.59375" y="0" x="0" class="er entityBox"></rect><text transform="translate(66.796875,12)" style="dominant-baseline: middle; text-anchor: middle; font-size: 12px;" y="0" x="0" id="text-entity-SALESBYCUS-8b9894ec-ced2-572b-b26e-75b1eae6b2aa" class="er entityLabel">SALES_BY_CUS</text><rect height="22" width="35.7421875" y="24" x="0" class="er attributeBoxOdd"></rect><text transform="translate(5,35)" style="dominant-baseline: middle; font-size: 10.2px;" y="0" x="0" id="text-entity-SALESBYCUS-8b9894ec-ced2-572b-b26e-75b1eae6b2aa-attr-1-type" class="er entityLabel">string</text><rect height="22" width="97.8515625" y="24" x="35.7421875" class="er attributeBoxOdd"></rect><text transform="translate(40.7421875,35)" style="dominant-baseline: middle; font-size: 10.2px;" y="0" x="0" id="text-entity-SALESBYCUS-8b9894ec-ced2-572b-b26e-75b1eae6b2aa-attr-1-name" class="er entityLabel">name</text><rect height="22" width="35.7421875" y="46" x="0" class="er attributeBoxEven"></rect><text transform="translate(5,57)" style="dominant-baseline: middle; font-size: 10.2px;" y="0" x="0" id="text-entity-SALESBYCUS-8b9894ec-ced2-572b-b26e-75b1eae6b2aa-attr-2-type" class="er entityLabel">int</text><rect height="22" width="97.8515625" y="46" x="35.7421875" class="er attributeBoxEven"></rect><text transform="translate(40.7421875,57)" style="dominant-baseline: middle; font-size: 10.2px;" y="0" x="0" id="text-entity-SALESBYCUS-8b9894ec-ced2-572b-b26e-75b1eae6b2aa-attr-2-name" class="er entityLabel">customer_id</text><rect height="22" width="35.7421875" y="68" x="0" class="er attributeBoxOdd"></rect><text transform="translate(5,79)" style="dominant-baseline: middle; font-size: 10.2px;" y="0" x="0" id="text-entity-SALESBYCUS-8b9894ec-ced2-572b-b26e-75b1eae6b2aa-attr-3-type" class="er entityLabel">float</text><rect height="22" width="97.8515625" y="68" x="35.7421875" class="er attributeBoxOdd"></rect><text transform="translate(40.7421875,79)" style="dominant-baseline: middle; font-size: 10.2px;" y="0" x="0" id="text-entity-SALESBYCUS-8b9894ec-ced2-572b-b26e-75b1eae6b2aa-attr-3-name" class="er entityLabel">customer_spending</text></g><g transform="translate(876.0859375,276 )" id="entity-SALESCUSTOMERS-376fb2b8-4189-5432-9ea7-92e26afdaecc"><rect height="266" width="130.2421875" y="0" x="0" class="er entityBox"></rect><text transform="translate(65.12109375,12)" style="dominant-baseline: middle; text-anchor: middle; font-size: 12px;" y="0" x="0" id="text-entity-SALESCUSTOMERS-376fb2b8-4189-5432-9ea7-92e26afdaecc" class="er entityLabel">SALES_CUSTOMERS</text><rect height="22" width="61.3515625" y="24" x="0" class="er attributeBoxOdd"></rect><text transform="translate(5,35)" style="dominant-baseline: middle; font-size: 10.2px;" y="0" x="0" id="text-entity-SALESCUSTOMERS-376fb2b8-4189-5432-9ea7-92e26afdaecc-attr-1-type" class="er entityLabel">int</text><rect height="22" width="68.890625" y="24" x="61.3515625" class="er attributeBoxOdd"></rect><text transform="translate(66.3515625,35)" style="dominant-baseline: middle; font-size: 10.2px;" y="0" x="0" id="text-entity-SALESCUSTOMERS-376fb2b8-4189-5432-9ea7-92e26afdaecc-attr-1-name" class="er entityLabel">order_id</text><rect height="22" width="61.3515625" y="46" x="0" class="er attributeBoxEven"></rect><text transform="translate(5,57)" style="dominant-baseline: middle; font-size: 10.2px;" y="0" x="0" id="text-entity-SALESCUSTOMERS-376fb2b8-4189-5432-9ea7-92e26afdaecc-attr-2-type" class="er entityLabel">int</text><rect height="22" width="68.890625" y="46" x="61.3515625" class="er attributeBoxEven"></rect><text transform="translate(66.3515625,57)" style="dominant-baseline: middle; font-size: 10.2px;" y="0" x="0" id="text-entity-SALESCUSTOMERS-376fb2b8-4189-5432-9ea7-92e26afdaecc-attr-2-name" class="er entityLabel">customer_id</text><rect height="22" width="61.3515625" y="68" x="0" class="er attributeBoxOdd"></rect><text transform="translate(5,79)" style="dominant-baseline: middle; font-size: 10.2px;" y="0" x="0" id="text-entity-SALESCUSTOMERS-376fb2b8-4189-5432-9ea7-92e26afdaecc-attr-3-type" class="er entityLabel">int</text><rect height="22" width="68.890625" y="68" x="61.3515625" class="er attributeBoxOdd"></rect><text transform="translate(66.3515625,79)" style="dominant-baseline: middle; font-size: 10.2px;" y="0" x="0" id="text-entity-SALESCUSTOMERS-376fb2b8-4189-5432-9ea7-92e26afdaecc-attr-3-name" class="er entityLabel">product_id</text><rect height="22" width="61.3515625" y="90" x="0" class="er attributeBoxEven"></rect><text transform="translate(5,101)" style="dominant-baseline: middle; font-size: 10.2px;" y="0" x="0" id="text-entity-SALESCUSTOMERS-376fb2b8-4189-5432-9ea7-92e26afdaecc-attr-4-type" class="er entityLabel">int</text><rect height="22" width="68.890625" y="90" x="61.3515625" class="er attributeBoxEven"></rect><text transform="translate(66.3515625,101)" style="dominant-baseline: middle; font-size: 10.2px;" y="0" x="0" id="text-entity-SALESCUSTOMERS-376fb2b8-4189-5432-9ea7-92e26afdaecc-attr-4-name" class="er entityLabel">quantity</text><rect height="22" width="61.3515625" y="112" x="0" class="er attributeBoxOdd"></rect><text transform="translate(5,123)" style="dominant-baseline: middle; font-size: 10.2px;" y="0" x="0" id="text-entity-SALESCUSTOMERS-376fb2b8-4189-5432-9ea7-92e26afdaecc-attr-5-type" class="er entityLabel">float</text><rect height="22" width="68.890625" y="112" x="61.3515625" class="er attributeBoxOdd"></rect><text transform="translate(66.3515625,123)" style="dominant-baseline: middle; font-size: 10.2px;" y="0" x="0" id="text-entity-SALESCUSTOMERS-376fb2b8-4189-5432-9ea7-92e26afdaecc-attr-5-name" class="er entityLabel">price</text><rect height="22" width="61.3515625" y="134" x="0" class="er attributeBoxEven"></rect><text transform="translate(5,145)" style="dominant-baseline: middle; font-size: 10.2px;" y="0" x="0" id="text-entity-SALESCUSTOMERS-376fb2b8-4189-5432-9ea7-92e26afdaecc-attr-6-type" class="er entityLabel">timestamp</text><rect height="22" width="68.890625" y="134" x="61.3515625" class="er attributeBoxEven"></rect><text transform="translate(66.3515625,145)" style="dominant-baseline: middle; font-size: 10.2px;" y="0" x="0" id="text-entity-SALESCUSTOMERS-376fb2b8-4189-5432-9ea7-92e26afdaecc-attr-6-name" class="er entityLabel">order_date</text><rect height="22" width="61.3515625" y="156" x="0" class="er attributeBoxOdd"></rect><text transform="translate(5,167)" style="dominant-baseline: middle; font-size: 10.2px;" y="0" x="0" id="text-entity-SALESCUSTOMERS-376fb2b8-4189-5432-9ea7-92e26afdaecc-attr-7-type" class="er entityLabel">string</text><rect height="22" width="68.890625" y="156" x="61.3515625" class="er attributeBoxOdd"></rect><text transform="translate(66.3515625,167)" style="dominant-baseline: middle; font-size: 10.2px;" y="0" x="0" id="text-entity-SALESCUSTOMERS-376fb2b8-4189-5432-9ea7-92e26afdaecc-attr-7-name" class="er entityLabel">name</text><rect height="22" width="61.3515625" y="178" x="0" class="er attributeBoxEven"></rect><text transform="translate(5,189)" style="dominant-baseline: middle; font-size: 10.2px;" y="0" x="0" id="text-entity-SALESCUSTOMERS-376fb2b8-4189-5432-9ea7-92e26afdaecc-attr-8-type" class="er entityLabel">string</text><rect height="22" width="68.890625" y="178" x="61.3515625" class="er attributeBoxEven"></rect><text transform="translate(66.3515625,189)" style="dominant-baseline: middle; font-size: 10.2px;" y="0" x="0" id="text-entity-SALESCUSTOMERS-376fb2b8-4189-5432-9ea7-92e26afdaecc-attr-8-name" class="er entityLabel">username</text><rect height="22" width="61.3515625" y="200" x="0" class="er attributeBoxOdd"></rect><text transform="translate(5,211)" style="dominant-baseline: middle; font-size: 10.2px;" y="0" x="0" id="text-entity-SALESCUSTOMERS-376fb2b8-4189-5432-9ea7-92e26afdaecc-attr-9-type" class="er entityLabel">string</text><rect height="22" width="68.890625" y="200" x="61.3515625" class="er attributeBoxOdd"></rect><text transform="translate(66.3515625,211)" style="dominant-baseline: middle; font-size: 10.2px;" y="0" x="0" id="text-entity-SALESCUSTOMERS-376fb2b8-4189-5432-9ea7-92e26afdaecc-attr-9-name" class="er entityLabel">email</text><rect height="22" width="61.3515625" y="222" x="0" class="er attributeBoxEven"></rect><text transform="translate(5,233)" style="dominant-baseline: middle; font-size: 10.2px;" y="0" x="0" id="text-entity-SALESCUSTOMERS-376fb2b8-4189-5432-9ea7-92e26afdaecc-attr-10-type" class="er entityLabel">float</text><rect height="22" width="68.890625" y="222" x="61.3515625" class="er attributeBoxEven"></rect><text transform="translate(66.3515625,233)" style="dominant-baseline: middle; font-size: 10.2px;" y="0" x="0" id="text-entity-SALESCUSTOMERS-376fb2b8-4189-5432-9ea7-92e26afdaecc-attr-10-name" class="er entityLabel">lat</text><rect height="22" width="61.3515625" y="244" x="0" class="er attributeBoxOdd"></rect><text transform="translate(5,255)" style="dominant-baseline: middle; font-size: 10.2px;" y="0" x="0" id="text-entity-SALESCUSTOMERS-376fb2b8-4189-5432-9ea7-92e26afdaecc-attr-11-type" class="er entityLabel">float</text><rect height="22" width="68.890625" y="244" x="61.3515625" class="er attributeBoxOdd"></rect><text transform="translate(66.3515625,255)" style="dominant-baseline: middle; font-size: 10.2px;" y="0" x="0" id="text-entity-SALESCUSTOMERS-376fb2b8-4189-5432-9ea7-92e26afdaecc-attr-11-name" class="er entityLabel">lon</text></g><g transform="translate(890.78515625,64 )" id="entity-TOPSELLING-8c13e3ca-7ebe-59c3-98f5-fdcbb2d150d9"><rect height="68" width="100.84375" y="0" x="0" class="er entityBox"></rect><text transform="translate(50.421875,12)" style="dominant-baseline: middle; text-anchor: middle; font-size: 12px;" y="0" x="0" id="text-entity-TOPSELLING-8c13e3ca-7ebe-59c3-98f5-fdcbb2d150d9" class="er entityLabel">TOP_SELLING</text><rect height="22" width="36.54296875" y="24" x="0" class="er attributeBoxOdd"></rect><text transform="translate(5,35)" style="dominant-baseline: middle; font-size: 10.2px;" y="0" x="0" id="text-entity-TOPSELLING-8c13e3ca-7ebe-59c3-98f5-fdcbb2d150d9-attr-1-type" class="er entityLabel">int</text><rect height="22" width="64.30078125" y="24" x="36.54296875" class="er attributeBoxOdd"></rect><text transform="translate(41.54296875,35)" style="dominant-baseline: middle; font-size: 10.2px;" y="0" x="0" id="text-entity-TOPSELLING-8c13e3ca-7ebe-59c3-98f5-fdcbb2d150d9-attr-1-name" class="er entityLabel">product_id</text><rect height="22" width="36.54296875" y="46" x="0" class="er attributeBoxEven"></rect><text transform="translate(5,57)" style="dominant-baseline: middle; font-size: 10.2px;" y="0" x="0" id="text-entity-TOPSELLING-8c13e3ca-7ebe-59c3-98f5-fdcbb2d150d9-attr-2-type" class="er entityLabel">float</text><rect height="22" width="64.30078125" y="46" x="36.54296875" class="er attributeBoxEven"></rect><text transform="translate(41.54296875,57)" style="dominant-baseline: middle; font-size: 10.2px;" y="0" x="0" id="text-entity-TOPSELLING-8c13e3ca-7ebe-59c3-98f5-fdcbb2d150d9-attr-2-name" class="er entityLabel">sale_value</text></g><rect height="0" width="0" y="271.3340759277344" x="132.39712524414062" class="er relationshipLabelBox"></rect><text style="text-anchor: middle; dominant-baseline: middle; font-size: 12px;" y="271.3340759277344" x="132.39712524414062" id="rel3120" class="er relationshipLabel"></text><rect height="0" width="0" y="253.5" x="287.19140625" class="er relationshipLabelBox"></rect><text style="text-anchor: middle; dominant-baseline: middle; font-size: 12px;" y="253.5" x="287.19140625" id="rel3121" class="er relationshipLabel"></text><rect height="0" width="0" y="253.2846221923828" x="450.5318908691406" class="er relationshipLabelBox"></rect><text style="text-anchor: middle; dominant-baseline: middle; font-size: 12px;" y="253.2846221923828" x="450.5318908691406" id="rel3122" class="er relationshipLabel"></text><rect height="0" width="0" y="548" x="706.125" class="er relationshipLabelBox"></rect><text style="text-anchor: middle; dominant-baseline: middle; font-size: 12px;" y="548" x="706.125" id="rel3123" class="er relationshipLabel"></text><rect height="0" width="0" y="253.5" x="706.125" class="er relationshipLabelBox"></rect><text style="text-anchor: middle; dominant-baseline: middle; font-size: 12px;" y="253.5" x="706.125" id="rel3124" class="er relationshipLabel"></text><rect height="0" width="0" y="592" x="941.20703125" class="er relationshipLabelBox"></rect><text style="text-anchor: middle; dominant-baseline: middle; font-size: 12px;" y="592" x="941.20703125" id="rel3125" class="er relationshipLabel"></text><rect height="0" width="0" y="204" x="941.20703125" class="er relationshipLabelBox"></rect><text style="text-anchor: middle; dominant-baseline: middle; font-size: 12px;" y="204" x="941.20703125" id="rel3126" class="er relationshipLabel"></text></svg>